<svg width="1684" height="361" viewBox="0 0 1684 361" fill="none" xmlns="http://www.w3.org/2000/svg">
<path d="M1291.03 48.0072C1291.03 41.462 1293.21 34.9167 1298.66 29.4623C1303.03 24.0079 1309.57 21.8262 1317.21 21.8262C1324.84 21.8262 1331.39 24.0079 1335.75 29.4623C1341.21 34.9167 1343.39 40.3711 1343.39 48.0072C1343.39 55.6434 1341.21 62.1887 1335.75 66.5522C1330.3 72.0066 1324.84 74.1883 1317.21 74.1883C1309.57 74.1883 1304.12 72.0066 1298.66 66.5522C1293.21 61.0978 1291.03 54.5525 1291.03 48.0072ZM1296.48 110.187L1336.84 102.551V264.001H1296.48V110.187Z" fill="#1A1A1A"/>
<path d="M1255.02 98.1934H1214.66V189.827C1214.66 208.372 1199.39 224.735 1179.75 224.735C1161.21 224.735 1144.84 209.463 1144.84 189.827V98.1934H1104.48V189.827C1104.48 231.28 1138.3 265.098 1179.75 265.098C1221.21 265.098 1255.02 231.28 1255.02 189.827V98.1934Z" fill="#1A1A1A"/>
<path d="M708.281 172.373V264.007H748.644V172.373C748.644 153.828 763.916 138.556 782.461 138.556C801.006 138.556 817.369 153.828 817.369 173.464V265.098H857.731V173.464C857.731 132.011 823.914 98.1934 782.461 98.1934C741.008 98.1934 708.281 130.92 708.281 172.373Z" fill="#1A1A1A"/>
<path d="M1447.02 226.903C1444.84 226.903 1442.66 226.903 1440.47 226.903C1431.75 226.903 1425.2 224.721 1423.02 220.357C1420.84 215.994 1418.66 209.449 1418.66 202.903V0L1379.38 7.63614V202.903C1379.38 210.539 1380.48 218.176 1381.57 224.721C1382.66 231.266 1385.93 237.811 1389.2 243.266C1393.57 248.72 1397.93 253.084 1405.57 255.265C1412.11 258.538 1420.84 259.629 1431.75 259.629C1436.11 259.629 1440.47 259.629 1445.93 258.538V226.903H1447.02Z" fill="#1A1A1A"/>
<path d="M1681.56 226.903C1672.83 226.903 1666.29 224.721 1664.1 220.357C1661.92 215.994 1659.74 209.449 1659.74 202.903V0L1620.47 7.63615V102.543C1616.1 100.361 1611.74 98.179 1606.29 95.9973C1595.38 91.6337 1584.47 89.452 1571.38 89.452C1559.38 89.452 1547.38 91.6337 1536.47 95.9973C1525.56 100.361 1516.83 105.815 1508.11 113.451C1500.47 121.087 1493.93 129.814 1489.56 140.723C1485.2 151.632 1483.02 162.541 1483.02 175.631C1483.02 188.722 1485.2 199.631 1489.56 210.539C1493.93 221.448 1500.47 230.175 1508.11 237.811C1515.74 245.448 1525.56 250.902 1536.47 255.265C1547.38 259.629 1558.29 261.811 1571.38 261.811C1583.38 261.811 1595.38 259.629 1606.29 255.265C1609.56 254.175 1612.83 251.993 1616.1 250.902L1615.01 249.811C1610.65 244.357 1608.47 238.902 1607.38 231.266C1606.29 225.812 1605.2 220.357 1605.2 213.812C1601.92 217.085 1597.56 220.357 1593.2 222.539C1587.74 225.812 1580.11 226.903 1572.47 226.903C1564.83 226.903 1557.2 225.812 1551.74 222.539C1546.29 219.266 1540.83 214.903 1537.56 210.539C1533.2 205.085 1531.02 199.631 1528.83 194.176C1526.65 187.631 1525.56 181.086 1525.56 175.631C1525.56 169.086 1526.65 163.632 1528.83 157.086C1531.02 150.541 1533.2 145.087 1537.56 140.723C1541.93 135.269 1546.29 131.996 1551.74 128.724C1557.2 125.451 1564.83 124.36 1572.47 124.36C1580.11 124.36 1587.74 125.451 1593.2 128.724C1598.65 131.996 1604.1 135.269 1607.38 140.723C1610.65 146.178 1613.92 151.632 1616.1 157.086C1617.2 159.268 1617.2 163.632 1617.2 166.904V202.903C1617.2 210.539 1618.29 218.176 1619.38 224.721C1620.47 231.266 1623.74 237.811 1627.01 243.266C1631.38 248.72 1635.74 253.084 1643.38 255.265C1649.92 258.538 1658.65 259.629 1669.56 259.629C1672.83 259.629 1678.28 259.629 1682.65 258.538V226.903C1683.74 226.903 1682.65 226.903 1681.56 226.903Z" fill="#1A1A1A"/>
<path d="M272.744 133.101C281.471 133.101 288.016 135.283 290.198 139.647C292.38 144.01 294.561 150.555 294.561 157.101V360.004L333.833 352.368V257.462C338.197 259.643 342.56 261.825 348.015 264.007C358.923 268.37 369.832 270.552 382.923 270.552C394.922 270.552 406.922 268.37 417.831 264.007C428.739 259.643 437.467 254.189 446.194 246.553C453.83 238.917 460.375 230.19 464.738 219.281C469.102 208.372 471.284 197.463 471.284 184.373C471.284 171.282 469.102 160.373 464.738 149.465C460.375 138.556 453.83 129.829 446.194 122.193C438.557 114.557 428.739 109.102 417.831 104.739C406.922 100.375 396.013 98.1934 382.923 98.1934C370.923 98.1934 358.923 100.375 348.015 104.739C344.742 105.83 341.469 108.011 338.197 109.102L339.287 110.193C343.651 115.647 345.833 121.102 346.924 128.738C348.014 134.192 349.105 139.647 349.105 146.192C352.378 142.919 356.742 139.647 361.105 137.465C366.559 134.192 374.196 133.101 381.832 133.101C389.468 133.101 397.104 134.192 402.558 137.465C408.013 140.738 413.467 145.101 416.74 149.465C421.103 154.919 423.285 160.373 425.467 165.828C427.649 172.373 428.739 178.918 428.739 184.373C428.739 190.918 427.649 196.372 425.467 202.918C423.285 209.463 421.103 214.917 416.74 219.281C412.376 224.735 408.013 228.008 402.558 231.28C397.104 234.553 389.468 235.644 381.832 235.644C374.196 235.644 366.559 234.553 361.105 231.28C355.651 228.008 350.196 224.735 346.924 219.281C343.651 213.826 340.378 208.372 338.197 202.918C337.106 200.736 337.106 196.372 337.106 193.1V157.101C337.106 149.465 336.015 141.828 334.924 135.283C333.833 128.738 330.56 122.193 327.288 116.738C322.924 111.284 318.561 106.92 310.925 104.739C304.379 101.466 295.652 100.375 284.744 100.375C281.471 100.375 276.017 100.375 271.653 101.466V133.101C270.562 133.101 271.653 133.101 272.744 133.101Z" fill="#1A1A1A"/>
<path d="M666.553 147.283C662.19 136.374 656.735 127.647 650.19 120.011C643.645 112.375 634.918 106.92 625.1 103.648C615.282 100.375 605.464 98.1934 593.465 98.1934C581.465 98.1934 570.556 100.375 559.647 104.739C548.739 109.102 540.011 114.557 532.375 122.193C524.739 129.829 518.194 138.556 513.83 149.465C509.467 160.373 507.285 172.373 507.285 185.464C507.285 198.554 509.467 210.554 513.83 221.463C518.194 232.371 524.739 241.098 532.375 247.644C540.011 255.28 548.739 260.734 559.647 264.007C570.556 267.279 581.465 269.461 594.555 269.461C615.282 269.461 637.1 264.007 656.735 246.553L634.918 220.372C631.645 223.644 621.827 230.19 619.646 231.28C613.1 234.553 604.373 236.735 594.555 236.735C589.101 236.735 582.556 235.644 578.192 233.462C572.738 231.28 568.374 229.099 564.011 224.735C559.647 221.463 556.375 217.099 554.193 212.736C552.011 208.372 549.829 202.918 549.829 196.372C548.738 181.1 549.829 166.919 549.829 166.919C550.92 154.919 555.284 146.192 564.011 138.556C572.738 130.92 582.556 127.647 594.555 127.647C601.101 127.647 606.555 128.738 612.009 130.92C616.373 133.101 620.736 136.374 624.009 139.647C627.282 142.919 629.463 147.283 630.554 151.646C631.645 156.01 632.736 161.464 632.736 166.919H562.92V196.372H672.008C672.008 194.191 672.008 193.1 672.008 190.918C672.008 188.736 672.008 187.645 672.008 185.464C673.099 171.282 670.917 158.192 666.553 147.283Z" fill="#1A1A1A"/>
<path d="M1047.2 147.233C1032.63 130.43 986.707 131.55 986.707 131.55H971.024H954.221V169.637H993.428C1003.51 169.637 1024.79 169.637 1024.79 196.522C1024.79 226.767 1001.27 226.767 997.909 226.767H937.418V169.637V131.55V77.781H975.505C978.865 77.781 981.106 78.9012 984.466 80.0214C986.707 81.1416 990.067 83.382 991.187 85.6224C992.308 87.8628 994.548 91.2233 995.668 93.4637C996.788 96.8243 997.909 100.185 997.909 103.545C997.909 106.906 996.788 110.267 995.668 113.627C995.668 113.627 995.668 114.747 994.548 114.747C1020.31 115.868 1031.51 120.348 1039.36 123.709C1040.48 119.228 1041.6 112.507 1041.6 101.305C1041.6 88.983 1038.24 38.5742 974.384 38.5742H893.73V264.853H997.909C1007.99 264.853 1016.95 263.733 1024.79 261.493C1033.75 259.252 1040.48 255.892 1047.2 250.291C1053.92 244.69 1058.4 237.969 1062.88 230.127C1066.24 221.166 1068.48 211.084 1068.48 198.762C1068.48 183.079 1062.88 161.796 1047.2 147.233Z" fill="#1A1A1A"/>
<path fill-rule="evenodd" clip-rule="evenodd" d="M47.1289 66.655C90.5221 28.7628 156.386 29.5372 198.992 70.0998C244.054 112.999 245.803 184.524 202.81 229.693C161.34 273.26 93.1658 276.398 47.7965 237.664L80.3481 203.471C106.771 224.353 145.091 222.056 168.723 197.235C193.771 170.919 192.85 129.235 166.534 104.187C142.781 81.569 106.758 80.167 81.4296 99.3134L47.1289 66.655Z" fill="#1A1A1A"/>
<path d="M72.4494 117.602L35.8257 80.9961L0.13758 116.383L36.7613 153.003L0 189.472L35.5506 224.996L72.3118 188.527L108 153.14L72.4494 117.602Z" fill="#01DB83"/>
</svg>
