<svg width="32" height="32" viewBox="0 0 32 32" fill="none" xmlns="http://www.w3.org/2000/svg">
<rect width="32" height="32" rx="4" fill="#213147"/>
<path d="M18.2528 15.1631L19.7216 12.6708L23.6805 18.837L23.6824 20.0204L23.6695 11.8773C23.6601 11.6783 23.5544 11.4962 23.3858 11.3888L16.2582 7.28889C16.0916 7.20691 15.88 7.20786 15.7136 7.29149C15.6911 7.30269 15.6699 7.31497 15.6498 7.32836L15.6249 7.34397L8.70653 11.3531L8.67971 11.3653C8.64519 11.3812 8.61026 11.4014 8.57755 11.4248C8.44634 11.5189 8.35926 11.658 8.33108 11.814C8.32684 11.8377 8.32371 11.8617 8.32227 11.8861L8.33314 18.5218L12.0207 12.8063C12.485 12.0484 13.4965 11.8043 14.4355 11.8176L15.5376 11.8466L9.04387 22.2608L9.80936 22.7014L16.3808 11.8572L19.2855 11.8467L12.7309 22.9645L15.4624 24.5356L15.7887 24.7233C15.9268 24.7794 16.0895 24.7823 16.2287 24.732L23.4565 20.5434L22.0747 21.3441L18.2528 15.1631ZM18.8131 23.2342L16.0544 18.9043L17.7384 16.0466L21.3616 21.7573L18.8131 23.2342Z" fill="#213147"/>
<path d="M16.0547 18.9062L18.8134 23.2362L21.3619 21.7593L17.7387 16.0485L16.0547 18.9062Z" fill="#12AAFF"/>
<path d="M23.6825 20.0209L23.6806 18.8375L19.7217 12.6713L18.2529 15.1636L22.0747 21.3446L23.4566 20.5438C23.5921 20.4337 23.6741 20.2722 23.6827 20.0979L23.6825 20.0209Z" fill="#12AAFF"/>
<path d="M7.09277 21.1366L9.04413 22.2611L15.5378 11.847L14.4357 11.8179C13.4967 11.8046 12.4852 12.0488 12.0209 12.8066L8.33335 18.5222L7.09277 20.4283V21.1366Z" fill="white"/>
<path d="M19.2857 11.8462L16.381 11.8567L9.80957 22.7009L12.1065 24.0234L12.7311 22.964L19.2857 11.8462Z" fill="white"/>
<path d="M24.9067 11.8325C24.8824 11.2251 24.5535 10.669 24.0383 10.3452L16.8173 6.1926C16.3077 5.93599 15.6711 5.93566 15.1605 6.19243C15.1002 6.22287 8.13826 10.2605 8.13826 10.2605C8.0419 10.3067 7.94909 10.3618 7.8618 10.4242C7.4019 10.7538 7.12157 11.2661 7.09277 11.8288V20.4288L8.33335 18.5227L8.32252 11.8869C8.32396 11.8626 8.32701 11.8388 8.33134 11.8152C8.35939 11.6591 8.44656 11.5198 8.5778 11.4257C8.61055 11.4022 15.6914 7.30354 15.7139 7.29229C15.8803 7.20871 16.0919 7.20772 16.2585 7.2897L23.3861 11.3895C23.5547 11.4969 23.6604 11.679 23.6698 11.8781V20.0981C23.6612 20.2724 23.5923 20.434 23.4567 20.5441L22.0749 21.3448L21.3619 21.758L18.8134 23.235L16.229 24.7327C16.0898 24.783 15.927 24.7801 15.789 24.724L12.7312 22.9653L12.1066 24.0247L14.8545 25.6068C14.9454 25.6585 15.0263 25.7043 15.0928 25.7416C15.1956 25.7993 15.2657 25.8379 15.2905 25.8499C15.4858 25.9448 15.7668 26 16.0201 26C16.2522 26 16.4786 25.9574 16.6928 25.8734L24.1996 21.5261C24.6304 21.1923 24.8839 20.6888 24.9067 20.1435V11.8325Z" fill="#9DCCED"/>
</svg>
