<svg xmlns="http://www.w3.org/2000/svg" xmlns:xlink="http://www.w3.org/1999/xlink" width="98" height="30" viewBox="0 0 98 30"><defs><style>.a{fill:#fff;}.b{clip-path:url(#a);}.c{fill:#121312;}.d,.e{fill:#1551fe;}.e{fill-rule:evenodd;}</style><clipPath id="a"><rect class="a" width="98" height="30" transform="translate(0 -0.297)"/></clipPath></defs><g transform="translate(0 0.297)"><g class="b"><path class="c" d="M195.789,45.173a6.447,6.447,0,0,1,4.68,1.647,5.7,5.7,0,0,1,1.643,3.2,16.8,16.8,0,0,1,.149,1.817v3.8a17.275,17.275,0,0,1-.149,1.865,5.755,5.755,0,0,1-1.643,3.27,6.448,6.448,0,0,1-4.68,1.647h-6.4V49.949h3.1v9.438h2.935a3.862,3.862,0,0,0,2.907-1.06c.559-.6.838-2.12.838-4.6,0-2.385-.279-3.855-.838-4.457a3.863,3.863,0,0,0-2.907-1.06h-6.03V45.173Z" transform="translate(-157.389 -37.672)"/><path class="c" d="M285.51,45.173h-3.184v3.165h3.184Zm0,4.747h-3.184v12.5h3.184Z" transform="translate(-234.62 -37.672)"/><path class="c" d="M403.848,45.173h-3.185v3.165h3.185Zm0,4.747h-3.185v12.5h3.185Z" transform="translate(-332.962 -37.672)"/><path class="c" d="M329.083,74.289H326v.994a4.173,4.173,0,0,0-2.949-.994c-2,0-3.111.357-3.85,1.1a3.946,3.946,0,0,0-1.073,2.073,19.568,19.568,0,0,0-.191,3.082,19.139,19.139,0,0,0,.191,3.052,3.931,3.931,0,0,0,1.073,2.1c.739.739,1.847,1.1,3.826,1.1a4.457,4.457,0,0,0,2.957-.922v.482a2.779,2.779,0,0,1-.548,1.763,3.366,3.366,0,0,1-2.384.81,3.483,3.483,0,0,1-2.515-.953L318.6,89.917a6.46,6.46,0,0,0,4.589,1.62,6.565,6.565,0,0,0,4.411-1.453,4.951,4.951,0,0,0,1.478-3.693Zm-3.356,3.471a8.086,8.086,0,0,1,.414,2.849,6.311,6.311,0,0,1-.414,2.556,2.245,2.245,0,0,1-2.13,1,2.195,2.195,0,0,1-2.1-1,6.311,6.311,0,0,1-.414-2.556,7.9,7.9,0,0,1,.414-2.849,2.195,2.195,0,0,1,2.1-1,2.245,2.245,0,0,1,2.13,1" transform="translate(-264.214 -61.953)"/><path class="c" d="M447.42,48.338V45.173h-3.713a7.369,7.369,0,0,0-7.433,7.3v9.944h3.3V55.232h7.843V52.283h-7.843a3.981,3.981,0,0,1,4.015-3.945Z" transform="translate(-362.555 -37.672)"/><path class="c" d="M522.9,48.338V45.173h-12.34v3.165h4.492V62.421h3.357V48.338Z" transform="translate(-424.291 -37.672)"/><path class="d" d="M83.447,41.616c2.486-2.393,4.147-3.989,4.95-4.754a.306.306,0,0,1,.365-.042A12.431,12.431,0,0,1,94.108,52a.306.306,0,0,1-.5.105L83.443,42.039a.3.3,0,0,1,0-.423" transform="translate(-69.271 -30.671)"/><path class="e" d="M53,120.785a12.737,12.737,0,0,1-4.473-.807.3.3,0,0,1-.107-.488l10.192-10.042a.307.307,0,0,1,.433,0c2.423,2.455,4.038,4.1,4.812,4.888a.293.293,0,0,1,.042.357A12.77,12.77,0,0,1,53,120.785Z" transform="translate(-40.165 -91.202)"/><path class="e" d="M6.168,89.545A12.445,12.445,0,0,1,.822,74.368a.306.306,0,0,1,.5-.106L11.486,84.327a.3.3,0,0,1,0,.423C9,87.143,7.336,88.738,6.533,89.5a.306.306,0,0,1-.365.042" transform="translate(0 -61.858)"/><path class="e" d="M14.6,15.33c-.8-.763-2.462-2.358-4.95-4.753a.3.3,0,0,1,0-.423L19.812.088a.306.306,0,0,1,.5.1,12.282,12.282,0,0,1,.816,4.427,12.526,12.526,0,0,1-6.163,10.753.306.306,0,0,1-.365-.042" transform="translate(-7.943 0)"/><path class="e" d="M50.238,79.989l4.177-4.126a.306.306,0,0,1,.429,0l4.177,4.126a.293.293,0,0,1,0,.419l-4.177,4.125a.306.306,0,0,1-.429,0l-4.177-4.125a.293.293,0,0,1,0-.419" transform="translate(-41.676 -63.193)"/></g></g></svg>