<svg viewBox="0 0 190 28" class="sc-df97f1b-0 ejMcUv mobile-icon" color="text" width="20px" xmlns="http://www.w3.org/2000/svg"><path d="M5.42316 4.82541C3.56589 -0.0889974 2.33691 0.433551 2.33691 0.433551C2.33691 0.433551 0.0796848 0.920854 0 10.4677V24.932L5.87828 27.5831V7.32781C5.87828 6.47427 5.72351 5.62532 5.42316 4.82541ZM4.54969 6.47733C3.63179 6.82212 2.07334 8.31468 1.45425 9.4272C1.40827 9.50995 1.28109 9.47624 1.28262 9.3797C1.33472 2.75667 2.62194 2.63867 2.62194 2.63867C2.62194 2.63867 3.40652 2.30155 4.67535 6.21989C4.70906 6.32409 4.65236 6.43749 4.54969 6.47733Z" fill="white"></path><path d="M13.482 14.7234H7.95924L6.99536 15.4038L10.2961 18.0043H11.1436L14.4459 15.4038L13.482 14.7234Z" fill="white"></path><path d="M21.4398 10.4677C21.3601 0.922401 19.1028 0.433566 19.1028 0.433566C19.1028 0.433566 17.8769 -0.0874492 16.0258 4.8009C15.7208 5.60695 15.5599 6.46203 15.5599 7.32477V27.5831L21.4382 24.932V10.4677H21.4398ZM19.984 9.42722C19.3649 8.3147 17.8064 6.82214 16.8885 6.47735C16.7859 6.43904 16.7292 6.32411 16.7629 6.21991C18.0317 2.30156 18.8163 2.63869 18.8163 2.63869C18.8163 2.63869 20.1035 2.75668 20.1556 9.37971C20.1556 9.47472 20.0299 9.50997 19.984 9.42722Z" fill="white"></path><path d="M24.2134 19.5334V5.67896H30.346V18.4101C30.346 20.5049 31.5934 21.9117 34.6076 21.9117C37.4487 21.9117 38.8003 20.416 38.8003 18.3212V5.67896H44.933V19.5334C44.933 24.4708 41.5034 27.4635 34.6076 27.4635C27.7118 27.4635 24.2134 24.5305 24.2134 19.5334Z" fill="white"></path><path d="M47.1488 20.341H53.3167C53.5941 22.4955 55.223 23.3935 58.1668 23.3935C60.1757 23.3935 62.151 22.7652 62.151 21.1501C62.151 19.4445 60.142 19.0859 56.7462 18.3672C52.4494 17.4999 47.9104 16.3628 47.9104 11.8744C47.9104 7.38605 52.2073 5.29126 57.75 5.29126C63.2926 5.29126 67.2784 7.38605 67.5205 11.8744H61.5258C61.2837 10.2287 59.8279 9.30155 57.5415 9.30155C55.3931 9.30155 53.9726 10.1091 53.9726 11.3059C53.9726 12.8015 55.8789 13.1617 59.5858 13.8788C64.1937 14.8059 68.3511 16.0334 68.3511 20.6107C68.3511 25.1879 63.9163 27.5831 58.1989 27.5831C51.6158 27.5831 47.2852 25.0699 47.1458 20.3425L47.1488 20.341Z" fill="white"></path><path d="M70.8475 5.67896H76.9801V13.4283L85.5033 5.67896H92.7792L83.286 14.2665L93.3339 27.0728H86.196L79.0581 17.8263L76.9786 19.7111V27.0728H70.8459V5.67896H70.8475Z" fill="white"></path><path d="M94.9949 5.67896H113.774V10.0478H101.128V13.8773H111.972V18.0071H101.128V22.5859H113.981V27.0743H94.9949V5.67896Z" fill="white"></path><path d="M123.475 19.1748L115.089 5.67896H121.777L124.964 11.214C125.796 12.6805 126.593 14.4749 126.593 14.4749H126.662C126.662 14.4749 127.528 12.679 128.36 11.214L131.514 5.67896H137.993L129.607 19.1748V27.0743H123.475V19.1748Z" fill="white"></path><path d="M10.7206 16.821L10.2961 18.0041H11.1451L10.7206 16.821Z" fill="#EAEAEA"></path><path d="M11.1452 18.0027L14.446 15.4038L13.4836 14.7234L10.7207 16.8212L11.1452 18.0027Z" fill="#EFEFEF"></path><path d="M7.95771 14.7234L6.99536 15.4038L10.2961 18.0027L10.7206 16.8212L7.95771 14.7234Z" fill="#F9F9F9"></path><path d="M148.131 11.5281H152.135C154.305 11.5281 155.43 12.5195 155.43 13.9922C155.43 15.1032 154.68 15.8678 153.622 16.0824V16.1758C154.786 16.2295 155.805 17.1137 155.805 18.5204C155.805 20.0881 154.587 21.2266 152.443 21.2266H148.129V11.5296L148.131 11.5281ZM153.099 14.4212C153.099 13.7654 152.604 13.3501 151.786 13.3501H150.407V15.5338H151.76C152.537 15.5338 153.099 15.1185 153.099 14.4228V14.4212ZM153.421 18.266C153.421 17.5029 152.858 17.0202 151.948 17.0202H150.408V19.377H151.908C152.953 19.377 153.422 18.9617 153.422 18.266H153.421Z" fill="#00AAFF"></path><path d="M157.616 11.5281H164.327V13.3899H159.894V15.4388H163.979V17.3006H159.894V19.3632H164.341V21.2251H157.616V11.5281Z" fill="#00AAFF"></path><path d="M166.138 11.5281H174.295V13.3899H171.348V21.2251H169.085V13.3899H166.138V11.5281Z" fill="#00AAFF"></path><path d="M174.458 21.2251L177.752 11.5281H180.779L184.06 21.2251H181.608L180.952 19.1487H177.576L176.92 21.2251H174.456H174.458ZM180.405 17.4079L179.306 13.9247H179.226L178.128 17.4079H180.405Z" fill="#00AAFF"></path><path d="M186.632 25.2538H145.559C143.716 25.2538 142.217 23.8869 142.217 22.2089V10.5459C142.217 8.86634 143.718 7.50098 145.559 7.50098H186.632C188.476 7.50098 189.975 8.86788 189.975 10.5459V22.2089C189.975 23.8885 188.474 25.2538 186.632 25.2538ZM145.559 8.55067C144.352 8.55067 143.37 9.44559 143.37 10.5459V22.2089C143.37 23.3092 144.352 24.2041 145.559 24.2041H186.632C187.84 24.2041 188.822 23.3092 188.822 22.2089V10.5459C188.822 9.44559 187.84 8.55067 186.632 8.55067H145.559Z" fill="#00AAFF"></path></svg>