<svg width="186" height="40" fill="none" xmlns="http://www.w3.org/2000/svg"><g clip-path="url(#a)"><path d="M39.627 20c0 11.044-8.872 20-19.813 20C8.872 40 0 31.044 0 20S8.872 0 19.814 0c10.941 0 19.813 8.956 19.813 20Z" fill="#DD1438"/><path d="M31.178 10.378c-.475-1.222-1.272-2.293-2.162-3.191a10.553 10.553 0 0 0-3.223-2.076 9.373 9.373 0 0 0-2.408-.617c-2.955-.432-6.068.484-8.326 2.768-2.607 2.632-3.523 6.485-2.373 10.072v.035a10.089 10.089 0 0 0-1.969 1.622c-.907.96-1.642 2.076-2.118 3.298a10.564 10.564 0 0 0-.69 3.84c0 1.333.277 2.6.796 3.778.476 1.222 1.273 2.293 2.162 3.191a10.553 10.553 0 0 0 3.223 2.076c1.167.48 2.426.697 3.699.697-.18 0-.357-.009-.533-.017a9.695 9.695 0 0 0 7.432-2.876 9.843 9.843 0 0 0 2.395-9.991 9.798 9.798 0 0 0 2.087-1.693c.907-.96 1.643-2.076 2.118-3.298a10.57 10.57 0 0 0 .692-3.84 9.31 9.31 0 0 0-.797-3.778m-8.547.711a4.17 4.17 0 0 1-.097-.955c.357.062.696.168 1.035.31.476.2.89.525 1.211.898.308.387.581.805.735 1.285.168.48.216.96.216 1.44a3.757 3.757 0 0 1-1.079 2.422l-2.02-5.395v-.005Zm2.308 6.165c.061-.058.123-.116.176-.183.413-.435.673-.897.889-1.44.216-.542.26-1.129.26-1.657 0-.587-.154-1.116-.37-1.596s-.581-.916-.951-1.284c-.37-.325-.846-.65-1.321-.805-.343-.124-.718-.178-1.096-.204a4.08 4.08 0 0 1 .462-1.791c.431.084.845.213 1.246.4.735.324 1.32.804 1.84 1.333.476.587.907 1.222 1.167 1.92s.37 1.427.37 2.182c0 .756-.154 1.502-.475 2.138a4.676 4.676 0 0 1-1.211 1.751 5.187 5.187 0 0 1-.546.431l-.445-1.191.005-.004Zm.717 1.915a7.5 7.5 0 0 0 .78-.671c.537-.587 1.012-1.333 1.272-2.076.321-.804.431-1.608.431-2.4 0-.79-.198-1.595-.523-2.337a5.788 5.788 0 0 0-1.365-1.92c-.582-.525-1.211-.96-1.947-1.223a6.397 6.397 0 0 0-1.28-.302c.184-.342.409-.658.686-.942.216-.218.454-.404.7-.564.198.07.392.15.581.24a7.12 7.12 0 0 1 2.426 1.702c.692.698 1.211 1.609 1.581 2.506.37.96.524 1.965.524 2.925a8.566 8.566 0 0 1-.63 2.88c-.37.853-.95 1.64-1.642 2.338a6.83 6.83 0 0 1-1.175.95l-.419-1.115v.01ZM15.354 33.516a5.923 5.923 0 0 1-.458-.196 7.119 7.119 0 0 1-2.426-1.702c-.692-.698-1.211-1.609-1.581-2.511a8.143 8.143 0 0 1-.52-2.925 8.464 8.464 0 0 1 .63-2.88c.37-.853.951-1.64 1.643-2.337a6.797 6.797 0 0 1 1.078-.89l.427 1.12a6.886 6.886 0 0 0-.691.605c-.537.587-1.013 1.334-1.272 2.076-.322.804-.432 1.609-.432 2.4 0 .79.198 1.595.524 2.338a5.79 5.79 0 0 0 1.365 1.92c.581.524 1.21.96 1.95 1.222.375.133.767.226 1.159.284a4.089 4.089 0 0 1-.67.898 3.87 3.87 0 0 1-.722.573m.295-1.915c-.735-.325-1.32-.805-1.84-1.334-.476-.586-.903-1.222-1.167-1.92a6.193 6.193 0 0 1-.37-2.182c0-.755.154-1.502.476-2.138.26-.68.69-1.27 1.21-1.75.146-.134.3-.254.458-.37l.458 1.21c-.035.035-.07.066-.105.106-.414.431-.674.898-.89 1.44-.216.542-.26 1.129-.26 1.658 0 .59.154 1.115.37 1.595s.581.916.951 1.285c.37.324.846.649 1.321.804.317.111.656.17 1.004.196a4.158 4.158 0 0 1-.489 1.778 5.345 5.345 0 0 1-1.127-.378Zm1.537-2.414c.066.32.088.64.079.956a4.82 4.82 0 0 1-.942-.293c-.476-.2-.89-.525-1.211-.898-.308-.387-.581-.805-.735-1.285-.168-.48-.216-.96-.216-1.44a3.753 3.753 0 0 1 1.008-2.346l2.017 5.306Zm-6.08 3.747c-.908-.915-1.533-1.969-2.009-3.142-.413-1.116-.63-2.4-.63-3.622.062-1.223.322-2.445.798-3.56.475-1.13 1.21-2.138 2.056-2.987a8.705 8.705 0 0 1 1.717-1.333l.326.853c-.498.329-.96.698-1.365 1.147a8.005 8.005 0 0 0-1.686 2.71c-.37 1.005-.52 2.076-.52 3.143.062 1.053.26 2.12.691 3.08a8.148 8.148 0 0 0 1.797 2.556 8.101 8.101 0 0 0 2.576 1.657c.136.054.273.098.41.147a4.312 4.312 0 0 1-2.062.6 3.176 3.176 0 0 1-.77-.08 9.509 9.509 0 0 1-1.325-1.16m19.523-15.244c-.476 1.128-1.211 2.137-2.057 2.986a8.622 8.622 0 0 1-1.822 1.396l-.317-.85a7.248 7.248 0 0 0 1.466-1.212c.735-.792 1.32-1.703 1.686-2.712.37-1.004.52-2.075.52-3.142-.062-1.053-.26-2.12-.692-3.08a8.077 8.077 0 0 0-4.372-4.213 5.633 5.633 0 0 0-.546-.182 4.049 4.049 0 0 1 2.968-.48c.48.346.924.737 1.32 1.16.908.915 1.533 1.964 2.008 3.142.414 1.115.63 2.4.63 3.622-.061 1.222-.321 2.449-.797 3.56" fill="#fff"/><path d="M52.366 33.09c-1.964-.579-3.544-1.325-4.733-2.245l2.091-4.685c1.14.845 2.497 1.525 4.069 2.036 1.572.51 3.143.769 4.715.769 1.753 0 3.043-.263 3.88-.787.836-.524 1.254-1.222 1.254-2.093 0-.64-.246-1.174-.74-1.596-.493-.422-1.127-.76-1.902-1.018-.775-.258-1.818-.538-3.139-.844-2.03-.485-3.69-.973-4.98-1.458a8.103 8.103 0 0 1-3.328-2.342c-.925-1.076-1.387-2.507-1.387-4.298 0-1.56.418-2.978 1.254-4.244.837-1.267 2.096-2.271 3.783-3.014 1.686-.742 3.747-1.115 6.181-1.115 1.7 0 3.36.204 4.98.613 1.62.409 3.043 1 4.262 1.765l-1.902 4.724c-2.461-1.404-4.918-2.111-7.38-2.111-1.725 0-2.998.284-3.821.844-.823.565-1.237 1.307-1.237 2.227 0 .92.475 1.609 1.426 2.053.951.45 2.404.89 4.355 1.325 2.03.484 3.69.973 4.98 1.457a8.22 8.22 0 0 1 3.328 2.303c.925 1.049 1.387 2.47 1.387 4.262a7.379 7.379 0 0 1-1.272 4.204c-.85 1.267-2.127 2.271-3.822 3.014-1.7.742-3.765 1.11-6.2 1.11a21.56 21.56 0 0 1-6.106-.866m24.744-2.316c-2.118-2.124-3.174-5.16-3.174-9.097V6.617h6.16v14.819c0 4.813 1.976 7.217 5.935 7.217 1.924 0 3.399-.582 4.412-1.746 1.012-1.165 1.523-2.987 1.523-5.471V6.618h6.085v15.049c0 3.942-1.061 6.973-3.175 9.097-2.117 2.125-5.076 3.187-8.88 3.187-3.805 0-6.764-1.062-8.881-3.187m43.245-22.955c1.735.79 3.074 1.92 4.011 3.378.938 1.457 1.409 3.186 1.409 5.182 0 1.995-.466 3.693-1.409 5.164-.937 1.471-2.276 2.6-4.011 3.378-1.734.782-3.786 1.173-6.142 1.173h-5.363v7.41h-6.16V6.617h11.523c2.36 0 4.408.395 6.142 1.19Zm-2.263 11.995c.964-.804 1.444-1.95 1.444-3.435s-.48-2.667-1.444-3.471c-.964-.805-2.373-1.21-4.222-1.21h-5.02v9.33h5.02c1.849 0 3.258-.405 4.222-1.21m29.1 13.685-5.134-7.489h-5.667v7.49h-6.16V6.617h11.523c2.36 0 4.408.395 6.142 1.19 1.735.792 3.074 1.92 4.011 3.379.938 1.457 1.409 3.186 1.409 5.182 0 1.995-.475 3.72-1.426 5.164-.951 1.45-2.303 2.551-4.051 3.32l5.971 8.64h-6.618Zm-1.559-20.595c-.964-.805-2.373-1.21-4.222-1.21h-5.02v9.37h5.02c1.849 0 3.258-.41 4.222-1.227.964-.818 1.444-1.969 1.444-3.453 0-1.485-.48-2.667-1.444-3.476m31.425 14.831h-12.36l-2.36 5.76h-6.314l11.867-26.875h6.085l11.905 26.875h-6.463l-2.36-5.76Zm-1.942-4.724-4.223-10.29-4.222 10.29h8.445Z" fill="#1D2A3A"/></g><defs><clipPath id="a"><path fill="#fff" d="M0 0h185.882v40H0z"/></clipPath></defs></svg>